<mxfile host="app.diagrams.net" modified="2021-09-17T07:25:57.339Z" agent="5.0 (Macintosh; Intel Mac OS X 10_15_7) AppleWebKit/537.36 (KHTML, like Gecko) Chrome/93.0.4577.63 Safari/537.36" etag="WokDtromJaB5kYyWYbWk" version="15.2.7" type="github">
  <diagram id="Ow8XMiSThOBe_2ycDWCA" name="Page-1">
    <mxGraphModel dx="946" dy="563" grid="1" gridSize="10" guides="1" tooltips="1" connect="1" arrows="1" fold="1" page="1" pageScale="1" pageWidth="827" pageHeight="1169" math="0" shadow="0">
      <root>
        <mxCell id="0" />
        <mxCell id="1" parent="0" />
        <mxCell id="6yqtYLvBM4NSD6dGN_0F-1" value="使用者&lt;br style=&quot;font-size: 18px;&quot;&gt;會員" style="text;html=1;strokeColor=none;fillColor=none;align=center;verticalAlign=middle;whiteSpace=wrap;rounded=0;fontColor=#5AA9E6;fontSize=18;" vertex="1" parent="1">
          <mxGeometry x="103" y="100" width="100" height="20" as="geometry" />
        </mxCell>
        <mxCell id="6yqtYLvBM4NSD6dGN_0F-2" value="服務端" style="text;html=1;strokeColor=none;fillColor=none;align=center;verticalAlign=middle;whiteSpace=wrap;rounded=0;fontColor=#5AA9E6;fontSize=18;" vertex="1" parent="1">
          <mxGeometry x="361" y="100" width="106" height="20" as="geometry" />
        </mxCell>
        <mxCell id="6yqtYLvBM4NSD6dGN_0F-3" value="車商" style="text;html=1;strokeColor=none;fillColor=none;align=center;verticalAlign=middle;whiteSpace=wrap;rounded=0;fontColor=#5AA9E6;fontSize=18;" vertex="1" parent="1">
          <mxGeometry x="650" y="100" width="40" height="20" as="geometry" />
        </mxCell>
        <mxCell id="6yqtYLvBM4NSD6dGN_0F-4" value="原有作業流程圖" style="text;html=1;strokeColor=none;fillColor=none;align=center;verticalAlign=middle;whiteSpace=wrap;rounded=0;fontSize=21;fontColor=#5AA9E6;" vertex="1" parent="1">
          <mxGeometry x="285" y="20" width="250" height="20" as="geometry" />
        </mxCell>
        <mxCell id="6yqtYLvBM4NSD6dGN_0F-7" style="edgeStyle=orthogonalEdgeStyle;curved=0;rounded=1;sketch=0;orthogonalLoop=1;jettySize=auto;html=1;exitX=0.5;exitY=1;exitDx=0;exitDy=0;entryX=0.5;entryY=0;entryDx=0;entryDy=0;fontColor=#5AA9E6;strokeColor=#FF6392;fillColor=#FFE45E;" edge="1" parent="1" source="6yqtYLvBM4NSD6dGN_0F-5" target="6yqtYLvBM4NSD6dGN_0F-6">
          <mxGeometry relative="1" as="geometry" />
        </mxCell>
        <mxCell id="6yqtYLvBM4NSD6dGN_0F-33" style="edgeStyle=orthogonalEdgeStyle;curved=0;rounded=1;sketch=0;orthogonalLoop=1;jettySize=auto;html=1;exitX=0;exitY=0.5;exitDx=0;exitDy=0;entryX=0;entryY=0.5;entryDx=0;entryDy=0;fontColor=#FFFFFF;strokeColor=#FF6392;fillColor=#FFE45E;" edge="1" parent="1" source="6yqtYLvBM4NSD6dGN_0F-5" target="6yqtYLvBM4NSD6dGN_0F-28">
          <mxGeometry relative="1" as="geometry" />
        </mxCell>
        <mxCell id="6yqtYLvBM4NSD6dGN_0F-5" value="造訪網站" style="rounded=0;whiteSpace=wrap;html=1;fontSize=21;fillColor=#FFE45E;strokeColor=#FF6392;fontColor=#5AA9E6;" vertex="1" parent="1">
          <mxGeometry x="102.5" y="160" width="95" height="40" as="geometry" />
        </mxCell>
        <mxCell id="6yqtYLvBM4NSD6dGN_0F-13" style="edgeStyle=orthogonalEdgeStyle;curved=0;rounded=1;sketch=0;orthogonalLoop=1;jettySize=auto;html=1;exitX=1;exitY=0.5;exitDx=0;exitDy=0;entryX=0;entryY=0.5;entryDx=0;entryDy=0;fontColor=#FFFFFF;strokeColor=#FF6392;fillColor=#FFE45E;" edge="1" parent="1" source="6yqtYLvBM4NSD6dGN_0F-6" target="6yqtYLvBM4NSD6dGN_0F-8">
          <mxGeometry relative="1" as="geometry" />
        </mxCell>
        <mxCell id="6yqtYLvBM4NSD6dGN_0F-6" value="加入會員" style="rounded=0;whiteSpace=wrap;html=1;fontSize=21;fillColor=#FFE45E;strokeColor=#FF6392;fontColor=#5AA9E6;" vertex="1" parent="1">
          <mxGeometry x="102.5" y="240" width="95" height="40" as="geometry" />
        </mxCell>
        <mxCell id="6yqtYLvBM4NSD6dGN_0F-10" style="edgeStyle=orthogonalEdgeStyle;curved=0;rounded=1;sketch=0;orthogonalLoop=1;jettySize=auto;html=1;exitX=0.5;exitY=1;exitDx=0;exitDy=0;entryX=0.5;entryY=0;entryDx=0;entryDy=0;fontColor=#5AA9E6;strokeColor=#FF6392;fillColor=#FFE45E;" edge="1" parent="1" source="6yqtYLvBM4NSD6dGN_0F-8" target="6yqtYLvBM4NSD6dGN_0F-9">
          <mxGeometry relative="1" as="geometry" />
        </mxCell>
        <mxCell id="6yqtYLvBM4NSD6dGN_0F-8" value="會員審核" style="rounded=0;whiteSpace=wrap;html=1;fontSize=21;fillColor=#FFE45E;strokeColor=#FF6392;fontColor=#5AA9E6;" vertex="1" parent="1">
          <mxGeometry x="292.5" y="240" width="95" height="40" as="geometry" />
        </mxCell>
        <mxCell id="6yqtYLvBM4NSD6dGN_0F-12" style="edgeStyle=orthogonalEdgeStyle;curved=0;rounded=1;sketch=0;orthogonalLoop=1;jettySize=auto;html=1;exitX=0.5;exitY=1;exitDx=0;exitDy=0;entryX=0.5;entryY=0;entryDx=0;entryDy=0;fontColor=#FFFFFF;strokeColor=#FF6392;fillColor=#FFE45E;" edge="1" parent="1" source="6yqtYLvBM4NSD6dGN_0F-9" target="6yqtYLvBM4NSD6dGN_0F-11">
          <mxGeometry relative="1" as="geometry" />
        </mxCell>
        <mxCell id="6yqtYLvBM4NSD6dGN_0F-9" value="驗證" style="rhombus;whiteSpace=wrap;html=1;rounded=0;sketch=0;strokeColor=#FF3399;fillColor=#00CCCC;" vertex="1" parent="1">
          <mxGeometry x="300" y="310" width="80" height="50" as="geometry" />
        </mxCell>
        <mxCell id="6yqtYLvBM4NSD6dGN_0F-11" value="結束" style="ellipse;whiteSpace=wrap;html=1;aspect=fixed;rounded=0;sketch=0;fontColor=#FFFFFF;strokeColor=#FF3399;fillColor=#EA6B66;" vertex="1" parent="1">
          <mxGeometry x="394" y="400" width="40" height="40" as="geometry" />
        </mxCell>
        <mxCell id="6yqtYLvBM4NSD6dGN_0F-16" style="edgeStyle=orthogonalEdgeStyle;curved=0;rounded=1;sketch=0;orthogonalLoop=1;jettySize=auto;html=1;exitX=0.5;exitY=1;exitDx=0;exitDy=0;fontColor=#FFFFFF;strokeColor=#FF6392;fillColor=#FFE45E;" edge="1" parent="1" source="6yqtYLvBM4NSD6dGN_0F-14" target="6yqtYLvBM4NSD6dGN_0F-15">
          <mxGeometry relative="1" as="geometry" />
        </mxCell>
        <mxCell id="6yqtYLvBM4NSD6dGN_0F-14" value="加入會員" style="rounded=0;whiteSpace=wrap;html=1;fontSize=21;fillColor=#FFE45E;strokeColor=#FF6392;fontColor=#5AA9E6;" vertex="1" parent="1">
          <mxGeometry x="622.5" y="160" width="95" height="40" as="geometry" />
        </mxCell>
        <mxCell id="6yqtYLvBM4NSD6dGN_0F-18" style="edgeStyle=orthogonalEdgeStyle;curved=0;rounded=1;sketch=0;orthogonalLoop=1;jettySize=auto;html=1;exitX=0.5;exitY=1;exitDx=0;exitDy=0;entryX=0.5;entryY=0;entryDx=0;entryDy=0;fontColor=#FFFFFF;strokeColor=#FF6392;fillColor=#FFE45E;" edge="1" parent="1" source="6yqtYLvBM4NSD6dGN_0F-15" target="6yqtYLvBM4NSD6dGN_0F-17">
          <mxGeometry relative="1" as="geometry" />
        </mxCell>
        <mxCell id="6yqtYLvBM4NSD6dGN_0F-15" value="車商審核" style="rounded=0;whiteSpace=wrap;html=1;fontSize=21;fillColor=#FFE45E;strokeColor=#FF6392;fontColor=#5AA9E6;" vertex="1" parent="1">
          <mxGeometry x="450" y="240" width="95" height="40" as="geometry" />
        </mxCell>
        <mxCell id="6yqtYLvBM4NSD6dGN_0F-20" style="edgeStyle=orthogonalEdgeStyle;curved=0;rounded=1;sketch=0;orthogonalLoop=1;jettySize=auto;html=1;exitX=1;exitY=0.5;exitDx=0;exitDy=0;entryX=0.5;entryY=0;entryDx=0;entryDy=0;fontColor=#FFFFFF;strokeColor=#FF6392;fillColor=#FFE45E;" edge="1" parent="1" source="6yqtYLvBM4NSD6dGN_0F-17" target="6yqtYLvBM4NSD6dGN_0F-19">
          <mxGeometry relative="1" as="geometry" />
        </mxCell>
        <mxCell id="6yqtYLvBM4NSD6dGN_0F-21" style="edgeStyle=orthogonalEdgeStyle;curved=0;rounded=1;sketch=0;orthogonalLoop=1;jettySize=auto;html=1;exitX=0.5;exitY=1;exitDx=0;exitDy=0;entryX=0.5;entryY=0;entryDx=0;entryDy=0;fontColor=#FFFFFF;strokeColor=#FF6392;fillColor=#FFE45E;" edge="1" parent="1" source="6yqtYLvBM4NSD6dGN_0F-17" target="6yqtYLvBM4NSD6dGN_0F-11">
          <mxGeometry relative="1" as="geometry" />
        </mxCell>
        <mxCell id="6yqtYLvBM4NSD6dGN_0F-17" value="驗證" style="rhombus;whiteSpace=wrap;html=1;rounded=0;sketch=0;strokeColor=#FF3399;fillColor=#00CCCC;" vertex="1" parent="1">
          <mxGeometry x="457.5" y="310" width="80" height="50" as="geometry" />
        </mxCell>
        <mxCell id="6yqtYLvBM4NSD6dGN_0F-23" style="edgeStyle=orthogonalEdgeStyle;curved=0;rounded=1;sketch=0;orthogonalLoop=1;jettySize=auto;html=1;exitX=0.5;exitY=1;exitDx=0;exitDy=0;entryX=1;entryY=0.5;entryDx=0;entryDy=0;fontColor=#FFFFFF;strokeColor=#FF6392;fillColor=#FFE45E;" edge="1" parent="1" source="6yqtYLvBM4NSD6dGN_0F-19" target="6yqtYLvBM4NSD6dGN_0F-24">
          <mxGeometry relative="1" as="geometry">
            <mxPoint x="461" y="500" as="targetPoint" />
          </mxGeometry>
        </mxCell>
        <mxCell id="6yqtYLvBM4NSD6dGN_0F-19" value="加入車輛" style="rounded=0;whiteSpace=wrap;html=1;fontSize=21;fillColor=#FFE45E;strokeColor=#FF6392;fontColor=#5AA9E6;" vertex="1" parent="1">
          <mxGeometry x="622.5" y="390" width="95" height="40" as="geometry" />
        </mxCell>
        <mxCell id="6yqtYLvBM4NSD6dGN_0F-25" style="edgeStyle=orthogonalEdgeStyle;curved=0;rounded=1;sketch=0;orthogonalLoop=1;jettySize=auto;html=1;exitX=0.5;exitY=0;exitDx=0;exitDy=0;entryX=0.5;entryY=1;entryDx=0;entryDy=0;fontColor=#FFFFFF;strokeColor=#FF6392;fillColor=#FFE45E;" edge="1" parent="1" source="6yqtYLvBM4NSD6dGN_0F-24" target="6yqtYLvBM4NSD6dGN_0F-11">
          <mxGeometry relative="1" as="geometry" />
        </mxCell>
        <mxCell id="6yqtYLvBM4NSD6dGN_0F-27" style="edgeStyle=orthogonalEdgeStyle;curved=0;rounded=1;sketch=0;orthogonalLoop=1;jettySize=auto;html=1;exitX=0.5;exitY=1;exitDx=0;exitDy=0;entryX=0.5;entryY=0;entryDx=0;entryDy=0;fontColor=#FFFFFF;strokeColor=#FF6392;fillColor=#FFE45E;" edge="1" parent="1" source="6yqtYLvBM4NSD6dGN_0F-24" target="6yqtYLvBM4NSD6dGN_0F-26">
          <mxGeometry relative="1" as="geometry" />
        </mxCell>
        <mxCell id="6yqtYLvBM4NSD6dGN_0F-24" value="車源驗證" style="rhombus;whiteSpace=wrap;html=1;rounded=0;sketch=0;strokeColor=#FF3399;fillColor=#00CCCC;" vertex="1" parent="1">
          <mxGeometry x="374" y="470" width="80" height="50" as="geometry" />
        </mxCell>
        <mxCell id="6yqtYLvBM4NSD6dGN_0F-29" style="edgeStyle=orthogonalEdgeStyle;curved=0;rounded=1;sketch=0;orthogonalLoop=1;jettySize=auto;html=1;exitX=0;exitY=0.5;exitDx=0;exitDy=0;entryX=1;entryY=0.5;entryDx=0;entryDy=0;fontColor=#FFFFFF;strokeColor=#FF6392;fillColor=#FFE45E;" edge="1" parent="1" source="6yqtYLvBM4NSD6dGN_0F-26" target="6yqtYLvBM4NSD6dGN_0F-28">
          <mxGeometry relative="1" as="geometry" />
        </mxCell>
        <mxCell id="6yqtYLvBM4NSD6dGN_0F-26" value="商品上架" style="rounded=0;whiteSpace=wrap;html=1;fontSize=21;fillColor=#FFE45E;strokeColor=#FF6392;fontColor=#5AA9E6;" vertex="1" parent="1">
          <mxGeometry x="366" y="550" width="95" height="40" as="geometry" />
        </mxCell>
        <mxCell id="6yqtYLvBM4NSD6dGN_0F-46" style="edgeStyle=orthogonalEdgeStyle;curved=0;rounded=1;sketch=0;orthogonalLoop=1;jettySize=auto;html=1;exitX=0.5;exitY=1;exitDx=0;exitDy=0;entryX=0.5;entryY=0;entryDx=0;entryDy=0;fontSize=16;fontColor=#FFFFFF;strokeColor=#FF6392;fillColor=#FFE45E;" edge="1" parent="1" source="6yqtYLvBM4NSD6dGN_0F-28" target="6yqtYLvBM4NSD6dGN_0F-36">
          <mxGeometry relative="1" as="geometry" />
        </mxCell>
        <mxCell id="6yqtYLvBM4NSD6dGN_0F-28" value="瀏覽商品" style="rounded=0;whiteSpace=wrap;html=1;fontSize=21;fillColor=#FFE45E;strokeColor=#FF6392;fontColor=#5AA9E6;" vertex="1" parent="1">
          <mxGeometry x="102.5" y="550" width="95" height="40" as="geometry" />
        </mxCell>
        <mxCell id="6yqtYLvBM4NSD6dGN_0F-41" value="" style="edgeStyle=orthogonalEdgeStyle;curved=0;rounded=1;sketch=0;orthogonalLoop=1;jettySize=auto;html=1;fontSize=18;fontColor=#FFFFFF;strokeColor=#FF6392;fillColor=#FFE45E;" edge="1" parent="1" source="6yqtYLvBM4NSD6dGN_0F-36" target="6yqtYLvBM4NSD6dGN_0F-40">
          <mxGeometry relative="1" as="geometry" />
        </mxCell>
        <mxCell id="6yqtYLvBM4NSD6dGN_0F-36" value="訂閱車輛" style="rounded=0;whiteSpace=wrap;html=1;fontSize=21;fillColor=#FFE45E;strokeColor=#FF6392;fontColor=#5AA9E6;" vertex="1" parent="1">
          <mxGeometry x="102.5" y="670" width="95" height="40" as="geometry" />
        </mxCell>
        <mxCell id="6yqtYLvBM4NSD6dGN_0F-43" style="edgeStyle=orthogonalEdgeStyle;curved=0;rounded=1;sketch=0;orthogonalLoop=1;jettySize=auto;html=1;exitX=0.5;exitY=1;exitDx=0;exitDy=0;entryX=1;entryY=0.5;entryDx=0;entryDy=0;fontSize=18;fontColor=#FFFFFF;strokeColor=#FF6392;fillColor=#FFE45E;" edge="1" parent="1" source="6yqtYLvBM4NSD6dGN_0F-40" target="6yqtYLvBM4NSD6dGN_0F-42">
          <mxGeometry relative="1" as="geometry" />
        </mxCell>
        <mxCell id="6yqtYLvBM4NSD6dGN_0F-40" value="確認訂單" style="rhombus;whiteSpace=wrap;html=1;rounded=0;fontSize=21;fontColor=#5AA9E6;strokeColor=#FF6392;fillColor=#FFE45E;" vertex="1" parent="1">
          <mxGeometry x="359" y="655" width="110" height="70" as="geometry" />
        </mxCell>
        <mxCell id="6yqtYLvBM4NSD6dGN_0F-48" style="edgeStyle=orthogonalEdgeStyle;curved=0;rounded=1;sketch=0;orthogonalLoop=1;jettySize=auto;html=1;exitX=0.5;exitY=1;exitDx=0;exitDy=0;entryX=0;entryY=0.5;entryDx=0;entryDy=0;fontSize=15;fontColor=#FFFFFF;strokeColor=#FF6392;fillColor=#FFE45E;" edge="1" parent="1" source="6yqtYLvBM4NSD6dGN_0F-42" target="6yqtYLvBM4NSD6dGN_0F-47">
          <mxGeometry relative="1" as="geometry" />
        </mxCell>
        <mxCell id="6yqtYLvBM4NSD6dGN_0F-49" style="edgeStyle=orthogonalEdgeStyle;curved=0;rounded=1;sketch=0;orthogonalLoop=1;jettySize=auto;html=1;exitX=0;exitY=0.5;exitDx=0;exitDy=0;entryX=0;entryY=0.5;entryDx=0;entryDy=0;fontSize=15;fontColor=#FFFFFF;strokeColor=#FF6392;fillColor=#FFE45E;" edge="1" parent="1" source="6yqtYLvBM4NSD6dGN_0F-42" target="6yqtYLvBM4NSD6dGN_0F-28">
          <mxGeometry relative="1" as="geometry" />
        </mxCell>
        <mxCell id="6yqtYLvBM4NSD6dGN_0F-42" value="付款" style="rounded=0;whiteSpace=wrap;html=1;fontSize=21;fillColor=#FFE45E;strokeColor=#FF6392;fontColor=#5AA9E6;" vertex="1" parent="1">
          <mxGeometry x="102.5" y="760" width="95" height="40" as="geometry" />
        </mxCell>
        <mxCell id="6yqtYLvBM4NSD6dGN_0F-52" style="edgeStyle=orthogonalEdgeStyle;curved=0;rounded=1;sketch=0;orthogonalLoop=1;jettySize=auto;html=1;exitX=1;exitY=0.5;exitDx=0;exitDy=0;entryX=0;entryY=0.5;entryDx=0;entryDy=0;fontSize=15;fontColor=#000000;strokeColor=#FF6392;fillColor=#FFE45E;" edge="1" parent="1" source="6yqtYLvBM4NSD6dGN_0F-47" target="6yqtYLvBM4NSD6dGN_0F-51">
          <mxGeometry relative="1" as="geometry" />
        </mxCell>
        <mxCell id="6yqtYLvBM4NSD6dGN_0F-47" value="完成訂單&lt;br style=&quot;font-size: 15px;&quot;&gt;通知車商" style="rounded=0;whiteSpace=wrap;html=1;fontSize=15;fillColor=#FFE45E;strokeColor=#FF6392;fontColor=#5AA9E6;" vertex="1" parent="1">
          <mxGeometry x="366.5" y="840" width="95" height="40" as="geometry" />
        </mxCell>
        <mxCell id="6yqtYLvBM4NSD6dGN_0F-50" value="取消訂單" style="text;html=1;strokeColor=none;fillColor=none;align=center;verticalAlign=middle;whiteSpace=wrap;rounded=0;sketch=0;fontSize=15;fontColor=#000000;" vertex="1" parent="1">
          <mxGeometry x="63" y="655" width="40" height="20" as="geometry" />
        </mxCell>
        <mxCell id="6yqtYLvBM4NSD6dGN_0F-54" style="edgeStyle=orthogonalEdgeStyle;curved=0;rounded=1;sketch=0;orthogonalLoop=1;jettySize=auto;html=1;exitX=0.5;exitY=1;exitDx=0;exitDy=0;entryX=0.5;entryY=0;entryDx=0;entryDy=0;fontSize=15;fontColor=#000000;strokeColor=#FF6392;fillColor=#FFE45E;" edge="1" parent="1" source="6yqtYLvBM4NSD6dGN_0F-51" target="6yqtYLvBM4NSD6dGN_0F-53">
          <mxGeometry relative="1" as="geometry" />
        </mxCell>
        <mxCell id="6yqtYLvBM4NSD6dGN_0F-51" value="準備車輛" style="rounded=0;whiteSpace=wrap;html=1;fontSize=15;fillColor=#FFE45E;strokeColor=#FF6392;fontColor=#5AA9E6;" vertex="1" parent="1">
          <mxGeometry x="622.5" y="840" width="95" height="40" as="geometry" />
        </mxCell>
        <mxCell id="6yqtYLvBM4NSD6dGN_0F-60" style="edgeStyle=orthogonalEdgeStyle;curved=0;rounded=1;sketch=0;orthogonalLoop=1;jettySize=auto;html=1;entryX=1;entryY=0.5;entryDx=0;entryDy=0;fontSize=15;fontColor=#000000;strokeColor=#FF6392;fillColor=#FFE45E;" edge="1" parent="1" target="6yqtYLvBM4NSD6dGN_0F-55">
          <mxGeometry relative="1" as="geometry">
            <mxPoint x="620" y="940" as="sourcePoint" />
            <Array as="points">
              <mxPoint x="290" y="940" />
              <mxPoint x="290" y="940" />
            </Array>
          </mxGeometry>
        </mxCell>
        <mxCell id="6yqtYLvBM4NSD6dGN_0F-62" value="" style="edgeStyle=orthogonalEdgeStyle;curved=0;rounded=1;sketch=0;orthogonalLoop=1;jettySize=auto;html=1;fontSize=15;fontColor=#000000;strokeColor=#FF6392;fillColor=#FFE45E;exitX=0.5;exitY=1;exitDx=0;exitDy=0;" edge="1" parent="1" source="6yqtYLvBM4NSD6dGN_0F-53" target="6yqtYLvBM4NSD6dGN_0F-61">
          <mxGeometry relative="1" as="geometry" />
        </mxCell>
        <mxCell id="6yqtYLvBM4NSD6dGN_0F-53" value="交車" style="rounded=0;whiteSpace=wrap;html=1;fontSize=15;fillColor=#FFE45E;strokeColor=#FF6392;fontColor=#5AA9E6;" vertex="1" parent="1">
          <mxGeometry x="622.5" y="920" width="95" height="40" as="geometry" />
        </mxCell>
        <mxCell id="6yqtYLvBM4NSD6dGN_0F-64" style="edgeStyle=orthogonalEdgeStyle;curved=0;rounded=1;sketch=0;orthogonalLoop=1;jettySize=auto;html=1;exitX=0.5;exitY=1;exitDx=0;exitDy=0;entryX=0.5;entryY=0;entryDx=0;entryDy=0;fontSize=15;fontColor=#000000;strokeColor=#FF6392;fillColor=#FFE45E;" edge="1" parent="1" source="6yqtYLvBM4NSD6dGN_0F-55" target="6yqtYLvBM4NSD6dGN_0F-63">
          <mxGeometry relative="1" as="geometry" />
        </mxCell>
        <mxCell id="6yqtYLvBM4NSD6dGN_0F-55" value="用車" style="rounded=0;whiteSpace=wrap;html=1;fontSize=15;fillColor=#FFE45E;strokeColor=#FF6392;fontColor=#5AA9E6;" vertex="1" parent="1">
          <mxGeometry x="103" y="920" width="95" height="40" as="geometry" />
        </mxCell>
        <mxCell id="6yqtYLvBM4NSD6dGN_0F-61" value="確認交車&lt;br&gt;交付車商租金" style="rounded=0;whiteSpace=wrap;html=1;fontSize=15;fillColor=#FFE45E;strokeColor=#FF6392;fontColor=#5AA9E6;" vertex="1" parent="1">
          <mxGeometry x="362.5" y="1020" width="95" height="40" as="geometry" />
        </mxCell>
        <mxCell id="6yqtYLvBM4NSD6dGN_0F-66" style="edgeStyle=orthogonalEdgeStyle;curved=0;rounded=1;sketch=0;orthogonalLoop=1;jettySize=auto;html=1;exitX=1;exitY=0.5;exitDx=0;exitDy=0;entryX=0;entryY=0.5;entryDx=0;entryDy=0;fontSize=15;fontColor=#000000;strokeColor=#FF6392;fillColor=#FFE45E;" edge="1" parent="1" source="6yqtYLvBM4NSD6dGN_0F-63" target="6yqtYLvBM4NSD6dGN_0F-65">
          <mxGeometry relative="1" as="geometry" />
        </mxCell>
        <mxCell id="6yqtYLvBM4NSD6dGN_0F-63" value="還車" style="rounded=0;whiteSpace=wrap;html=1;fontSize=15;fillColor=#FFE45E;strokeColor=#FF6392;fontColor=#5AA9E6;" vertex="1" parent="1">
          <mxGeometry x="102.5" y="1090" width="95" height="40" as="geometry" />
        </mxCell>
        <mxCell id="6yqtYLvBM4NSD6dGN_0F-67" style="edgeStyle=orthogonalEdgeStyle;curved=0;rounded=1;sketch=0;orthogonalLoop=1;jettySize=auto;html=1;exitX=0.5;exitY=1;exitDx=0;exitDy=0;fontSize=15;fontColor=#000000;strokeColor=#FF6392;fillColor=#FFE45E;entryX=1;entryY=0.5;entryDx=0;entryDy=0;" edge="1" parent="1" source="6yqtYLvBM4NSD6dGN_0F-65" target="6yqtYLvBM4NSD6dGN_0F-68">
          <mxGeometry relative="1" as="geometry">
            <mxPoint x="490" y="1170" as="targetPoint" />
          </mxGeometry>
        </mxCell>
        <mxCell id="6yqtYLvBM4NSD6dGN_0F-72" style="edgeStyle=orthogonalEdgeStyle;curved=0;rounded=1;sketch=0;orthogonalLoop=1;jettySize=auto;html=1;exitX=1;exitY=0.5;exitDx=0;exitDy=0;entryX=1;entryY=0.5;entryDx=0;entryDy=0;fontSize=18;fontColor=#000000;strokeColor=#FF6392;fillColor=#FFE45E;" edge="1" parent="1" source="6yqtYLvBM4NSD6dGN_0F-65" target="6yqtYLvBM4NSD6dGN_0F-19">
          <mxGeometry relative="1" as="geometry" />
        </mxCell>
        <mxCell id="6yqtYLvBM4NSD6dGN_0F-65" value="確認車況&lt;br&gt;與行駛里程" style="rounded=0;whiteSpace=wrap;html=1;fontSize=15;fillColor=#FFE45E;strokeColor=#FF6392;fontColor=#5AA9E6;" vertex="1" parent="1">
          <mxGeometry x="622.5" y="1090" width="95" height="40" as="geometry" />
        </mxCell>
        <mxCell id="6yqtYLvBM4NSD6dGN_0F-70" style="edgeStyle=orthogonalEdgeStyle;curved=0;rounded=1;sketch=0;orthogonalLoop=1;jettySize=auto;html=1;exitX=0;exitY=0.5;exitDx=0;exitDy=0;entryX=1;entryY=0.5;entryDx=0;entryDy=0;fontSize=15;fontColor=#000000;strokeColor=#FF6392;fillColor=#FFE45E;" edge="1" parent="1" source="6yqtYLvBM4NSD6dGN_0F-68" target="6yqtYLvBM4NSD6dGN_0F-69">
          <mxGeometry relative="1" as="geometry" />
        </mxCell>
        <mxCell id="6yqtYLvBM4NSD6dGN_0F-68" value="計算其餘花費" style="rounded=0;whiteSpace=wrap;html=1;fontSize=15;fillColor=#FFE45E;strokeColor=#FF6392;fontColor=#5AA9E6;" vertex="1" parent="1">
          <mxGeometry x="366" y="1169" width="95" height="40" as="geometry" />
        </mxCell>
        <mxCell id="6yqtYLvBM4NSD6dGN_0F-73" style="edgeStyle=orthogonalEdgeStyle;curved=0;rounded=1;sketch=0;orthogonalLoop=1;jettySize=auto;html=1;exitX=0.5;exitY=1;exitDx=0;exitDy=0;entryX=0.5;entryY=0;entryDx=0;entryDy=0;fontSize=18;fontColor=#000000;strokeColor=#FF6392;fillColor=#FFE45E;" edge="1" parent="1" source="6yqtYLvBM4NSD6dGN_0F-69" target="6yqtYLvBM4NSD6dGN_0F-71">
          <mxGeometry relative="1" as="geometry" />
        </mxCell>
        <mxCell id="6yqtYLvBM4NSD6dGN_0F-69" value="付款" style="rounded=0;whiteSpace=wrap;html=1;fontSize=21;fillColor=#FFE45E;strokeColor=#FF6392;fontColor=#5AA9E6;" vertex="1" parent="1">
          <mxGeometry x="103" y="1169" width="95" height="40" as="geometry" />
        </mxCell>
        <mxCell id="6yqtYLvBM4NSD6dGN_0F-71" value="完成還車" style="rounded=0;whiteSpace=wrap;html=1;fontSize=21;fillColor=#FFE45E;strokeColor=#FF6392;fontColor=#5AA9E6;" vertex="1" parent="1">
          <mxGeometry x="103" y="1250" width="95" height="40" as="geometry" />
        </mxCell>
      </root>
    </mxGraphModel>
  </diagram>
</mxfile>
